# xmcd
#
# Track frame offsets: 
#        182
#        46232
#        106970
#        126220
#        160845
#        230395
#        275720
#
# Disc length: 4166 seconds
#
# Revision: 2
# Processed by: cddbd v1.5.2PL0 Copyright (c) Steve Scherf et al.
# Submitted via: ExactAudioCopy v1.3
#
DISCID=59104407
DTITLE=Willi Boskovsky and Vienna Philharmonic Quartet, 1962, 60 - Willi
DTITLE=Boskovsky_Complete DECCA Recordings_CD06 (Dvorak - Frank)
DYEAR=2018
DGENRE=Classical
TTITLE0=Willi Boskovsky and Vienna Philharmonic Quartet, 1962 - Dvorak_P
TTITLE0=iano Quintet in Amaj. - 1. Allegro ma non tanto
TTITLE1=Willi Boskovsky and Vienna Philharmonic Quartet, 1962 - Dvorak_P
TTITLE1=iano Quintet in Amaj. - 2. Dumka, andante con moto
TTITLE2=Willi Boskovsky and Vienna Philharmonic Quartet, 1962 - Dvorak_P
TTITLE2=iano Quintet in Amaj. - 3. Schezo (Furiant) , Molto vivace
TTITLE3=Willi Boskovsky and Vienna Philharmonic Quartet, 1962 - Dvorak_P
TTITLE3=iano Quintet in Amaj. - 4. Finale, allegro
TTITLE4=Willi Boskovsky and Vienna Philharmonic Quartet, 1960 - Franck_P
TTITLE4=iano Quintet in Fm - 1. Molto moderato quasi lento - Allegro
TTITLE5=Willi Boskovsky and Vienna Philharmonic Quartet, 1960 - Franck_P
TTITLE5=iano Quintet in Fm - 2. Lento con molto sentimento
TTITLE6=Willi Boskovsky and Vienna Philharmonic Quartet, 1960 - Franck_P
TTITLE6=iano Quintet in Fm - 3. Allegro non troppo ma con fuoco
EXTD=
EXTT0=
EXTT1=
EXTT2=
EXTT3=
EXTT4=
EXTT5=
EXTT6=
PLAYORDER=
